<?xml version="1.0" standalone="no"?>
<!DOCTYPE svg PUBLIC "-//W3C//DTD SVG 20010904//EN"
 "http://www.w3.org/TR/2001/REC-SVG-20010904/DTD/svg10.dtd">
<svg version="1.0" xmlns="http://www.w3.org/2000/svg"
 width="1082.000000pt" height="1082.000000pt" viewBox="0 0 1082.000000 1082.000000"
 preserveAspectRatio="xMidYMid meet">
<metadata>
Created by potrace 1.14, written by Peter Selinger 2001-2017
</metadata>
<g transform="translate(0.000000,1082.000000) scale(0.100000,-0.100000)"
fill="#000000" stroke="none">
<path d="M9395 9360 c-205 -40 -398 -128 -549 -251 -93 -76 -237 -244 -276
-324 -8 -16 -18 -32 -21 -35 -8 -7 -65 -130 -74 -160 -1 -3 -11 -36 -22 -75
-20 -65 -25 -86 -38 -155 -5 -26 -17 -147 -16 -165 3 -77 11 -196 16 -215 7
-35 18 -94 18 -100 1 -19 79 -226 87 -228 6 -2 10 -10 10 -18 0 -7 14 -36 30
-62 17 -27 30 -54 30 -60 0 -6 3 -12 8 -14 4 -1 25 -28 48 -58 42 -56 108
-127 179 -191 48 -42 160 -119 174 -119 6 0 11 -4 11 -8 0 -8 122 -68 150 -74
8 -2 17 -6 20 -9 10 -11 246 -72 266 -68 5 1 11 0 14 -1 3 -2 32 -4 65 -5 33
-2 76 -4 95 -5 19 -1 37 -1 40 0 3 1 33 3 68 6 35 2 71 8 81 14 10 5 21 7 23
4 4 -4 42 3 103 19 61 17 187 66 225 88 8 5 24 14 35 19 19 10 55 33 141 91
39 26 204 183 204 193 0 3 10 17 22 31 37 42 120 173 126 198 1 4 13 28 26 55
21 42 59 152 72 207 14 62 22 111 18 117 -2 3 0 9 5 12 8 6 7 289 -2 336 -7
35 -16 82 -21 105 -2 11 -15 54 -29 96 -85 257 -250 473 -477 624 -93 61 -132
82 -235 122 -82 33 -155 53 -250 70 -81 14 -313 10 -400 -7z"/>
<path d="M949 9277 c0 -15 -6 -66 -14 -132 -4 -27 -8 -66 -10 -85 -2 -19 -6
-55 -9 -80 -3 -25 -8 -67 -11 -95 -3 -27 -8 -61 -10 -75 -5 -28 -11 -80 -20
-155 -9 -88 -15 -136 -20 -164 -2 -14 -6 -48 -9 -76 -12 -104 -19 -161 -22
-180 -4 -20 -16 -139 -17 -162 0 -7 -3 -13 -6 -13 -3 0 -6 -19 -7 -43 0 -23
-4 -69 -8 -102 -5 -33 -10 -73 -11 -90 -6 -55 -16 -140 -20 -165 -2 -14 -7
-50 -10 -80 -3 -30 -8 -66 -10 -80 -2 -14 -6 -52 -10 -85 -7 -65 -10 -90 -25
-205 -5 -41 -12 -97 -15 -125 -3 -27 -8 -61 -10 -75 -2 -14 -6 -52 -10 -85 -3
-33 -8 -73 -11 -90 -2 -16 -7 -52 -10 -80 -3 -27 -6 -61 -8 -75 -2 -14 -6 -47
-9 -75 -7 -54 -17 -137 -22 -170 -1 -11 -3 -20 -4 -20 -1 0 -4 -22 -6 -50 -4
-58 -12 -134 -19 -185 -6 -36 -12 -90 -22 -175 -3 -27 -7 -61 -10 -75 -2 -14
-6 -53 -9 -87 -3 -34 -8 -72 -11 -85 -4 -23 -9 -59 -19 -158 -3 -30 -8 -68
-10 -85 -10 -71 -17 -132 -21 -165 -2 -19 -6 -53 -8 -75 -3 -22 -8 -60 -11
-85 -3 -25 -8 -61 -10 -80 -3 -19 -7 -60 -10 -90 -3 -30 -7 -68 -10 -85 -2
-16 -7 -52 -10 -80 -3 -27 -8 -66 -11 -85 -3 -19 -7 -55 -10 -80 -2 -25 -6
-60 -9 -78 -3 -18 -8 -54 -10 -80 -3 -26 -8 -65 -11 -87 -3 -22 -7 -56 -9 -75
-3 -30 -13 -114 -30 -250 -3 -19 -7 -57 -10 -85 -4 -27 -8 -61 -10 -75 -2 -14
-6 -52 -10 -85 -7 -69 -10 -93 -19 -155 -3 -25 -8 -65 -11 -90 -3 -25 -8 -70
-12 -100 -4 -30 -7 -72 -7 -92 -1 -21 -3 -38 -6 -38 -4 0 -6 -10 -7 -22 -1
-35 -12 -130 -17 -154 -2 -11 -7 -54 -11 -95 -8 -80 -13 -114 -15 -114 0 0 -3
-22 -5 -50 -3 -27 -7 -66 -10 -85 -2 -19 -7 -54 -10 -77 -3 -24 -7 -60 -10
-80 -2 -21 -9 -78 -15 -128 -10 -88 -15 -122 -26 -215 -3 -25 -7 -56 -9 -70
-3 -14 -7 -50 -10 -80 -4 -30 -8 -71 -10 -90 -3 -19 -7 -55 -10 -80 -3 -25 -7
-61 -10 -80 -2 -19 -7 -66 -11 -105 -3 -38 -8 -73 -10 -76 -1 -3 -6 -32 -9
-65 -3 -32 -8 -71 -11 -86 -2 -15 -6 -49 -9 -75 -2 -26 -7 -69 -10 -96 l-6
-47 976 0 975 0 1 38 c0 20 2 46 4 57 2 11 7 43 10 70 3 28 8 61 10 75 2 14 7
54 11 90 3 36 8 73 10 83 3 19 13 107 19 182 2 22 5 40 5 40 3 0 9 40 14 94 2
31 7 70 10 86 3 17 8 57 11 90 11 106 15 139 20 175 3 19 8 58 11 85 2 28 6
64 9 80 3 17 7 50 10 75 3 25 8 65 11 90 7 55 10 79 18 154 3 33 8 71 11 85 2
14 7 48 9 75 3 26 8 65 10 85 3 20 8 63 11 95 3 33 8 62 10 65 2 3 6 38 9 76
3 39 8 81 10 95 3 14 7 52 11 85 4 33 9 76 11 95 8 56 13 101 19 160 3 30 8
66 10 80 4 24 12 84 20 165 3 22 8 63 12 90 4 28 8 62 9 78 1 15 2 28 4 30 1
1 3 26 6 56 2 30 5 56 8 58 6 7 2824 5 2835 -1 5 -3 6 -21 1 -40 -4 -19 -5
-37 -3 -40 3 -2 2 -10 -3 -17 -4 -7 -9 -33 -11 -58 -8 -92 -12 -126 -13 -126
-1 0 -3 -16 -5 -35 -3 -44 -14 -127 -20 -160 -2 -14 -7 -50 -10 -80 -3 -30 -7
-68 -9 -85 -3 -16 -7 -57 -10 -91 -4 -33 -9 -71 -11 -85 -4 -22 -12 -83 -20
-154 -12 -105 -18 -163 -21 -185 -1 -14 -3 -25 -4 -25 -1 0 -3 -13 -4 -30 -3
-36 -15 -140 -21 -175 -3 -14 -7 -47 -10 -75 -10 -107 -17 -161 -21 -190 -3
-16 -7 -46 -9 -65 -2 -19 -6 -57 -10 -85 -3 -27 -8 -68 -10 -90 -3 -22 -7 -53
-9 -70 -5 -28 -10 -73 -21 -175 -3 -25 -7 -61 -10 -80 -2 -19 -7 -62 -11 -95
-3 -33 -8 -68 -9 -77 -2 -9 -7 -48 -10 -85 -4 -37 -9 -77 -12 -88 -2 -11 -6
-40 -8 -65 -3 -25 -7 -61 -10 -80 -6 -41 -14 -111 -19 -160 -9 -88 -19 -156
-23 -162 -2 -5 435 -8 971 -8 537 0 977 3 977 8 1 4 3 16 4 27 1 11 5 40 8 65
4 25 9 72 12 104 3 33 8 62 10 65 2 4 6 45 10 91 4 46 8 87 10 90 2 3 6 32 9
64 4 33 9 73 11 90 4 33 11 91 20 166 8 72 16 133 20 160 2 14 6 56 10 94 3
38 8 72 9 75 2 3 7 35 11 71 11 104 14 132 20 175 2 22 7 63 10 90 4 28 8 61
10 74 3 14 7 52 10 85 3 34 8 72 10 86 3 14 7 49 10 77 3 29 7 70 10 90 3 21
7 56 10 78 3 22 7 56 10 75 2 19 7 60 10 90 3 30 8 66 10 80 3 14 7 51 10 83
4 32 8 66 10 75 1 9 6 51 10 92 4 41 9 84 11 95 5 25 13 86 19 145 2 25 7 65
10 90 7 54 13 106 21 180 9 77 11 95 13 95 1 0 4 23 7 50 5 59 14 139 19 175
1 14 6 51 9 82 3 31 8 63 11 70 2 7 6 40 10 73 7 85 20 184 31 262 3 17 7 49
9 70 8 88 19 174 30 254 4 26 8 64 10 85 2 22 4 39 5 39 1 0 3 16 4 35 2 19 7
62 11 95 4 33 9 71 10 85 2 14 4 25 5 25 0 0 3 20 5 45 2 25 6 63 9 85 3 22 8
66 11 98 4 32 9 68 11 80 3 12 7 42 9 67 2 25 6 63 9 85 8 54 35 286 35 305 0
8 2 26 5 40 10 63 22 155 31 240 2 19 6 51 9 70 2 19 8 62 11 95 4 33 9 76 12
95 4 19 7 52 7 72 1 21 3 38 6 38 3 0 5 12 6 28 0 24 5 70 19 174 3 20 7 56 9
80 8 71 17 141 21 168 2 14 7 48 10 75 9 88 14 128 23 200 6 39 10 77 11 85 1
29 19 174 26 210 2 8 6 44 9 80 4 36 8 76 10 90 3 14 8 52 11 85 4 33 9 71 11
85 2 14 6 50 9 80 5 51 11 99 20 160 3 14 7 50 10 80 3 30 10 89 15 130 5 41
12 99 15 128 3 29 6 58 8 65 1 9 -209 12 -972 12 l-974 0 -3 -30 c-10 -95 -15
-134 -19 -165 -3 -19 -7 -53 -10 -75 -6 -55 -14 -122 -21 -175 -3 -25 -8 -61
-10 -80 -2 -19 -5 -53 -8 -75 -3 -22 -8 -67 -12 -100 -3 -33 -8 -69 -10 -80
-2 -11 -6 -45 -9 -75 -3 -30 -10 -86 -15 -125 -11 -83 -20 -153 -25 -215 -3
-25 -7 -56 -10 -70 -5 -25 -14 -101 -20 -170 -2 -19 -4 -35 -5 -35 -1 0 -3
-13 -4 -30 -4 -41 -18 -156 -21 -177 -2 -9 -6 -48 -10 -85 -3 -37 -7 -75 -10
-83 -4 -18 -13 -83 -20 -165 -3 -33 -8 -71 -10 -85 -7 -46 -18 -125 -20 -155
-4 -46 -16 -146 -21 -180 -5 -28 -7 -44 -19 -155 -2 -25 -7 -61 -9 -80 -6 -37
-17 -129 -21 -170 -4 -42 -26 -213 -31 -250 -5 -30 -9 -59 -13 -107 -1 -10
-292 -13 -1421 -13 l-1420 0 5 38 c2 20 7 62 10 92 3 30 8 71 11 90 3 19 8 53
10 75 2 22 5 56 8 75 8 60 17 134 21 170 4 43 16 136 21 170 2 14 6 54 10 90
6 61 11 95 14 95 0 0 3 23 5 51 2 29 6 69 9 90 3 22 8 59 11 84 3 25 7 61 10
80 16 125 25 203 30 255 4 33 8 71 11 85 2 14 7 43 9 65 2 22 7 63 10 90 4 28
8 66 10 85 2 19 7 58 10 85 3 28 7 61 10 75 3 14 7 48 10 75 8 86 20 188 32
270 3 22 7 51 8 65 1 14 6 53 9 87 4 34 8 70 10 80 2 10 7 45 10 78 4 33 11
93 17 134 6 41 12 91 14 110 10 104 16 159 20 181 3 14 7 52 10 85 4 33 7 69
8 80 2 20 -5 20 -970 22 -760 2 -973 0 -974 -10z"/>
</g>
</svg>
