<svg version="1.1" id="Layer_1" xmlns="http://www.w3.org/2000/svg" x="0" y="0" viewBox="0 0 1280 212.432" style="enable-background:new 0 0 1280 212.432" xml:space="preserve"><style>.st0{display:none}.st2{fill:#656582}.st3{fill:#c7c7d1}.st5{fill:none;stroke:#838296;stroke-miterlimit:10}.st10,.st9{fill:#fff}.st10{display:inline}.st11{font-family:&apos;DINCondensed-Bold&apos;}.st12{font-size:29px}.st13{font-family:&apos;MyriadPro-Regular&apos;}</style><linearGradient id="SVGID_1_" gradientUnits="userSpaceOnUse" x1="552.357" y1="111.48" x2="749.29" y2="111.48" gradientTransform="matrix(.9396 -.0822 .0752 .9966 20.68 55.857)"><stop offset="0" style="stop-color:#bebed2"/><stop offset="1" style="stop-color:#787883"/></linearGradient><path d="M714.811 148.546c-4.046 0-8.354-.917-12.802-2.725-8.41-3.418-12.334-7.641-16.129-11.725-4.224-4.545-8.213-8.838-18.223-11.299-5.062-1.244-10.206-2.585-15.182-3.883-11.194-2.919-20.862-5.441-24.219-5.441-.695 0-.85.113-.856.118-.524.489-.747 1.087-.982 1.721-.443 1.192-.945 2.544-3.486 3.195a1.182 1.182 0 0 1-.293.033c-2.849 0-22.94-8.994-40.403-17.351-8.565-4.099-36.56-17.667-37.204-20.176a.668.668 0 0 1 .332-.771c.152-.084.346-.123.611-.123 2.795 0 17.354 4.958 35.786 11.235 29.984 10.21 71.049 24.194 84.876 24.708a68.29 68.29 0 0 0 2.491.048c9.552 0 12.812-2.339 16.263-4.815 3.509-2.517 7.485-5.37 18.451-6.048a31.717 31.717 0 0 1 1.96-.061c17.499 0 28.974 14.893 29.186 25.146.092 4.476-1.724 8.951-4.982 12.277-3.752 3.827-9.149 5.937-15.195 5.937zm-9.766-37.425c-3.284 0-14.073.835-14.997 11.58-.809 9.413 9.292 17.055 19.525 19.005 1.733.33 3.433.498 5.053.498 8.286 0 13.319-4.111 13.809-11.28.422-6.175-3.572-14.312-16.044-18.629-2.189-.757-4.797-1.174-7.346-1.174z" style="fill:url(#SVGID_1_)"/><path class="st2" d="M545.976 80.618c7.212.002 98.365 35.115 120.644 35.942a67.17 67.17 0 0 0 2.51.049c19.485 0 13.165-9.531 34.745-10.865.652-.04 1.294-.06 1.929-.06 17.489.001 28.485 14.935 28.686 24.655.184 8.925-7.286 17.707-19.677 17.707-3.774 0-8.005-.815-12.614-2.688-17.85-7.255-15.424-18.377-34.421-23.046-16.554-4.069-34.593-9.339-39.52-9.339-.604 0-1.012.079-1.195.25-1.674 1.561-.643 3.875-4.253 4.799a.677.677 0 0 1-.169.017c-5.35 0-80.185-35.627-77.034-37.361.073-.04.196-.06.369-.06m168.651 62.086c7.579 0 13.75-3.582 14.307-11.746.651-9.547-7.939-16.214-16.379-19.135-2.179-.754-4.812-1.202-7.509-1.202-7.142 0-14.73 3.14-15.495 12.037-.804 9.352 8.92 17.441 19.929 19.539 1.753.335 3.484.507 5.147.507M545.976 79.618c-.353 0-.623.059-.852.185a1.17 1.17 0 0 0-.575 1.334c.167.648.418 1.628 12.186 7.872 6.557 3.479 15.538 7.965 25.286 12.63 13.504 6.463 37.256 17.4 40.619 17.4.153 0 .29-.016.417-.048 2.795-.715 3.37-2.262 3.831-3.505.212-.57.396-1.066.79-1.467.073-.017.244-.046.579-.046 3.293 0 13.395 2.635 24.091 5.424 4.977 1.298 10.124 2.641 15.19 3.886 9.865 2.425 13.805 6.665 17.977 11.154 3.832 4.124 7.794 8.388 16.307 11.847 4.509 1.833 8.879 2.762 12.99 2.762 6.182 0 11.706-2.163 15.553-6.09 3.352-3.422 5.219-8.028 5.124-12.637-.216-10.452-11.887-25.634-29.686-25.635-.657 0-1.326.021-1.991.062-11.11.687-15.148 3.585-18.711 6.141-3.531 2.534-6.58 4.722-15.971 4.722-.786 0-1.618-.016-2.473-.048-13.756-.511-54.786-14.483-84.746-24.685-21.113-7.189-33.192-11.257-35.935-11.258zm168.651 62.086c-1.589 0-3.257-.165-4.96-.489-12.753-2.431-19.737-11.3-19.12-18.471.887-10.32 11.322-11.123 14.499-11.123 2.495 0 5.046.407 7.182 1.147 12.206 4.225 16.117 12.132 15.709 18.122-.667 9.761-9.531 10.814-13.31 10.814z"/><path class="st3" d="M616 113.209a3.807 3.807 0 0 1-3.772-3.482 3.768 3.768 0 0 1 .889-2.761 3.765 3.765 0 0 1 2.892-1.335 3.808 3.808 0 0 1 3.773 3.482 3.794 3.794 0 0 1-3.782 4.096z"/><path d="M616.007 106.13a3.29 3.29 0 1 1-.008 6.58 3.29 3.29 0 0 1 .008-6.58m0-1a4.262 4.262 0 0 0-3.272 1.512 4.26 4.26 0 0 0-1.006 3.125c.18 2.21 2.056 3.942 4.271 3.942a4.262 4.262 0 0 0 3.272-1.512 4.26 4.26 0 0 0 1.006-3.125c-.179-2.21-2.055-3.942-4.271-3.942z" style="fill:#838296"/><path class="st5" d="m617.381 106.458-2.755 5.923"/><linearGradient id="SVGID_2_" gradientUnits="userSpaceOnUse" x1="545.008" y1="95.465" x2="607.463" y2="95.465"><stop offset="0" style="stop-color:#dcdce6"/><stop offset="1" style="stop-color:#c7c7d1"/></linearGradient><path d="M602.559 110.627c-12.655-5.673-57.425-26.694-57.55-29.77a.663.663 0 0 1 .355-.616c.152-.084.346-.123.611-.123 2.795 0 17.351 4.957 35.78 11.233 7.771 2.646 16.579 5.646 25.261 8.527l.446.148-.121.455c-.819 3.086-2.446 6.988-4.146 9.939l-.225.392-.411-.185z" style="fill:url(#SVGID_2_)"/><path class="st2" d="M545.976 80.618c3.887 0 32.156 10.2 60.883 19.734-.817 3.08-2.412 6.895-4.095 9.818-23.641-10.598-59.356-28.283-57.158-29.492.074-.04.197-.06.37-.06m0-1c-.352 0-.623.059-.852.185-.397.218-.632.63-.614 1.075.034.831.085 2.087 20.616 12.467 11.304 5.715 25.57 12.512 37.23 17.739l.825.37.451-.783c1.746-3.032 3.353-6.887 4.195-10.061l.241-.909-.893-.296c-8.681-2.881-17.489-5.881-25.26-8.527-21.116-7.192-33.196-11.26-35.939-11.26z"/><linearGradient id="SVGID_3_" gradientUnits="userSpaceOnUse" x1="-64.583" y1="105.032" x2="1324.02" y2="105.032" gradientTransform="matrix(.9944 -.0794 -.0265 .457 5.698 98.399)"><stop offset="0" style="stop-color:#f16465"/><stop offset="1" style="stop-color:#ab2727"/></linearGradient><path style="fill:url(#SVGID_3_)" d="M1321.342 8.784-27.317 193.471l-34.293-36.618L1319.926-3.417z"/><g style="opacity:.6"><path class="st9" d="m-162.704 183.825-8.121 1.003-1.111-.858c-1.129-.872-2.546-1.573-4.255-2.102-1.711-.53-3.615-.668-5.714-.413-1.133.137-1.92.349-2.358.635-.442.285-.683.605-.723.959-.009.378.177.784.554 1.217.375.432.858.874 1.444 1.324.685.525 1.294.956 1.83 1.296.537.34 1.145.626 1.824.861.68.234 1.457.412 2.333.534.876.123 1.976.216 3.304.28l7.721.371c2.216.094 4.156.287 5.821.578 1.663.292 3.174.68 4.533 1.165a23.06 23.06 0 0 1 3.764 1.855 40.697 40.697 0 0 1 3.595 2.508c1.413 1.097 2.488 2.143 3.226 3.141.738.998 1.01 1.891.816 2.683-.212.824-.951 1.549-2.215 2.171-1.268.624-3.177 1.108-5.734 1.452a34.26 34.26 0 0 1-6.041.254 38.425 38.425 0 0 1-6.068-.735 34.327 34.327 0 0 1-5.474-1.579c-1.698-.652-3.129-1.423-4.289-2.308l-1.842-1.405 8.153-1.059 1.537 1.179c.897.688 2.141 1.249 3.729 1.685 1.586.435 3.406.517 5.456.246 1.364-.18 2.308-.412 2.83-.695.522-.282.771-.622.748-1.018-.024-.396-.304-.838-.842-1.324a33.33 33.33 0 0 0-1.947-1.611 31.266 31.266 0 0 0-2.347-1.67 9.651 9.651 0 0 0-2.015-.987 12.75 12.75 0 0 0-2.325-.477 56.09 56.09 0 0 0-3.141-.244l-7.272-.37c-4.403-.221-7.94-.808-10.602-1.763a26.978 26.978 0 0 1-7.302-3.953c-1.316-1.004-2.268-1.995-2.855-2.974-.589-.98-.709-1.869-.368-2.67.288-.794 1.061-1.493 2.32-2.096 1.258-.601 3.108-1.048 5.547-1.339a33.512 33.512 0 0 1 6.31-.142c2.148.149 4.208.438 6.184.867 4.002.904 6.992 2.127 8.978 3.668l2.404 1.86zM-136.426 202.118l-21.115-27.748 6.689-.798 45.067 24.437-7.668 1.028-9.26-5.207-10.645 1.394 4.775 5.843-7.843 1.051zm7.841-11.583-15.882-8.963-.156.019 8.19 9.956 7.848-1.012zM-111.008 168.82l21.048 27.067-6.656.893-43.545-24.482 8.349-.996 28.843 17.353.15-.019-16.367-18.839 8.178-.977zM-74.816 193.856l-31.6-25.583 22.569-2.692 4.225 3.47-14.872 1.804 9.272 7.544 12.843-1.613 4.169 3.421-12.786 1.632 9.133 7.431 14.518-1.916 4.354 3.577-21.825 2.925zM-43.592 189.669l-26.359-21.79-8.576 1.04-4.22-3.469 24.479-2.919 4.11 3.433-8.439 1.023 26.152 21.724-7.147.958zM-24.925 187.166l-29.915-25.044 7.244-.864 29.682 24.968-7.011.94zM-6.614 184.71l-25.297-21.445-8.248 1-4.048-3.412 23.544-2.808 3.944 3.378-8.119.985 25.102 21.38-6.878.922zM4.421 183.23l-18.022-26.027 5.789-.69 38.817 23.153-6.658.893-7.98-4.936-9.231 1.208 4.085 5.488-6.8.911zm6.887-10.729-13.669-8.485-.135.017 7 9.345 6.804-.877zM33.991 179.265l-27.985-24.4 6.536-.78 26.838 13.477.129-.017-16.656-14.69 6.682-.797 27.256 24.149-6.094.817-26.567-13.185-.131.016 16.583 14.526-6.591.884zM62.592 175.43 35.52 151.345l19.51-2.327 3.621 3.265-12.864 1.56 8.208 7.336 11.113-1.398 3.576 3.221-11.067 1.414 11.364 10.157-6.389.857zM79.658 173.141l-16.471-25.096 5.335-.636 35.669 22.443-6.147.824-7.335-4.786-8.516 1.115 3.738 5.296-6.273.84zm6.403-10.277-12.554-8.221-.125.015 6.403 9.014 6.276-.808zM107.188 169.449 81.51 145.86l6.272-.748 21.889 20.198 11.98-1.581 3.55 3.305-18.013 2.415zM129.066 166.516l-25.008-23.345 6.118-.73 21.319 19.989 11.692-1.543 3.459 3.271-17.58 2.358zM150.074 163.698l-3.445-3.266 5.823-.768 3.42 3.257-5.798.777zM172.388 153.394l1.441 1.396c.721.698 1.171 1.389 1.35 2.072.182.684.115 1.322-.197 1.914-.311.594-.866 1.105-1.663 1.535-.798.432-1.828.731-3.09.901a24.145 24.145 0 0 1-3.558.189 19.262 19.262 0 0 1-3.956-.484 19.84 19.84 0 0 1-3.938-1.343c-1.286-.593-2.475-1.412-3.569-2.457l-13.246-12.658c-.796-.76-1.303-1.495-1.525-2.204-.221-.709-.159-1.355.188-1.936s.963-1.078 1.853-1.492c.888-.412 2.04-.702 3.458-.871 2.751-.328 5.509-.084 8.272.731 1.348.397 2.609.908 3.783 1.531 1.173.623 2.171 1.332 2.992 2.127l1.331 1.29-5.764.712-1.138-1.098c-.671-.647-1.576-1.17-2.714-1.567-1.14-.397-2.262-.529-3.366-.395-1.45.176-2.149.548-2.096 1.116.052.567.485 1.241 1.297 2.021l12.208 11.717c.688.66 1.518 1.18 2.488 1.56.969.378 2.107.481 3.415.309a4.956 4.956 0 0 0 1.087-.27c.351-.13.625-.305.823-.523.159-.213.197-.483.111-.81-.083-.326-.356-.711-.817-1.157l-1.155-1.114 5.695-.742zM165.451 141.943c-.95-.923-1.508-1.774-1.677-2.553-.167-.778-.025-1.461.425-2.048.434-.561 1.102-1.027 2.001-1.4.897-.373 1.924-.629 3.08-.766 1.154-.138 2.419-.155 3.793-.054 1.371.101 2.747.321 4.128.66a20.59 20.59 0 0 1 3.946 1.503c1.266.638 2.361 1.413 3.289 2.327l12.063 11.894c.954.941 1.499 1.78 1.638 2.52.137.738-.003 1.384-.422 1.937-.435.578-1.084 1.056-1.95 1.432-.868.376-1.862.64-2.983.79-1.122.151-2.355.185-3.697.105a21.713 21.713 0 0 1-4.041-.638 18.82 18.82 0 0 1-3.912-1.378 12.615 12.615 0 0 1-3.331-2.326l-12.35-12.005zm17.97 11.271c.798.779 1.759 1.302 2.885 1.572 1.122.268 2.193.335 3.21.2 1.017-.134 1.71-.434 2.081-.897.368-.465.16-1.084-.631-1.86l-12.148-11.927c-.803-.789-1.776-1.325-2.913-1.606-1.14-.282-2.23-.361-3.269-.235-1.039.126-1.749.424-2.127.891-.38.468-.162 1.099.648 1.89l12.264 11.972zM206.647 156.112l-22.704-22.469 5.369-.64 19.047 11.059.106-.013-4.908-12.744 5.301-.632 22.008 22.193-5.311.712-13.397-13.453-.106.013 4.176 10.233-2.699.355-14.974-8.9-.108.014 13.63 13.546-5.43.726zM236.912 142.998c-1.838-1.814-.752-3.552 2.237-3.93 2.979-.377 6.762.735 8.494 2.515 1.757 1.806.789 3.518-2.217 3.911-2.964.389-6.731-.679-8.514-2.496zM271.858 130.139l-5.06.625-.67-.703c-.68-.714-1.542-1.298-2.589-1.752-1.047-.455-2.222-.603-3.526-.445-.703.085-1.195.236-1.472.454-.28.217-.436.465-.468.744-.014.299.092.623.315.974.222.349.511.709.863 1.077.412.43.779.784 1.103 1.063.324.281.694.52 1.109.719.416.2.893.357 1.432.471.539.116 1.219.213 2.04.292l4.779.458c1.373.122 2.574.316 3.602.582a14.44 14.44 0 0 1 2.792 1.021 13.51 13.51 0 0 1 2.3 1.553 26.501 26.501 0 0 1 2.183 2.069c.856.902 1.502 1.756 1.941 2.565.438.809.588 1.525.45 2.149-.15.65-.627 1.209-1.429 1.675-.804.467-2.004.809-3.603 1.023-1.21.162-2.465.184-3.763.065a19.01 19.01 0 0 1-3.753-.72 18.143 18.143 0 0 1-3.361-1.374c-1.038-.555-1.908-1.197-2.607-1.923l-1.109-1.153 5.077-.66.927.968c.541.565 1.301 1.038 2.278 1.418.975.38 2.105.486 3.385.317.852-.113 1.444-.275 1.776-.489.331-.212.494-.477.488-.792-.006-.315-.171-.672-.495-1.069a23.005 23.005 0 0 0-1.176-1.321 20.476 20.476 0 0 0-1.422-1.376 5.675 5.675 0 0 0-1.23-.826 6.439 6.439 0 0 0-1.433-.428 27.861 27.861 0 0 0-1.944-.261l-4.501-.45c-2.722-.269-4.898-.81-6.522-1.622a16.109 16.109 0 0 1-4.422-3.279c-.789-.821-1.355-1.623-1.695-2.409-.341-.786-.396-1.491-.167-2.116.195-.621.688-1.157 1.478-1.608.79-.449 1.942-.765 3.455-.945a16.299 16.299 0 0 1 3.904.015c1.326.161 2.594.431 3.809.811 2.46.797 4.287 1.827 5.485 3.089l1.446 1.524zM287.816 145.227l-12.541-22.477 4.178-.498 27.646 20.389-4.837.649-5.689-4.352-6.689.876 2.857 4.753-4.925.66zm5.154-9.037-9.718-7.459-.098.012 4.889 8.082 4.927-.635zM304.457 119.27l12.648 22.03-4.213.565-26.751-20.41 5.234-.624 17.697 14.413.095-.012-9.859-15.346 5.149-.616zM326.711 140.012l-19.36-21.087 14.267-1.702 2.592 2.856-9.418 1.142 5.68 6.211 8.149-1.024 2.565 2.823-8.12 1.036 5.613 6.137 9.242-1.22 2.688 2.962-13.898 1.866zM346.612 137.343l-16.261-18.008-5.445.66-2.589-2.855 15.553-1.855 2.535 2.83-5.376.652 16.157 17.962-4.574.614zM358.57 135.739l-18.517-20.714 4.621-.551 18.4 20.662-4.504.603zM370.346 134.16l-15.726-17.769-5.278.64-2.503-2.816 15.077-1.798 2.451 2.792-5.212.632 15.627 17.724-4.436.595zM377.464 133.206l-11.013-21.329 3.723-.444 24.503 19.465-4.32.579-5.044-4.156-5.969.781 2.513 4.514-4.393.59zm4.657-8.51-8.608-7.117-.087.011 4.299 7.672 4.396-.566zM396.618 130.637l-17.536-20.267 4.222-.504 17.047 11.416.084-.011-10.46-12.201 4.331-.517 17.161 20.092-3.975.533-16.923-11.214-.085.011 10.419 12.087-4.285.575zM415.256 128.138l-17.065-20.047 12.696-1.514 2.285 2.714-8.384 1.017 5.174 6.101 7.256-.913 2.262 2.684-7.232.924 7.186 8.473-4.178.561zM426.43 126.639l-10.22-20.697 3.487-.416 22.866 18.95-4.05.543-4.708-4.047-5.593.732 2.335 4.383-4.117.552zm4.396-8.222-8.03-6.926-.082.01 3.993 7.447 4.119-.531zM444.541 124.211l-16.339-19.699 4.115-.491 13.94 16.867 7.917-1.045 2.273 2.771-11.906 1.597zM459.006 122.271l-15.985-19.526 4.033-.481 13.639 16.72 7.761-1.024 2.225 2.747-11.673 1.564zM472.959 120.4l-2.217-2.743 3.875-.511 2.204 2.736-3.862.518zM487.994 112.404l.932 1.174c.466.587.752 1.163.859 1.727.108.565.051 1.087-.169 1.567-.219.481-.599.889-1.138 1.226-.54.338-1.232.563-2.076.676-.721.097-1.511.124-2.372.083a10.548 10.548 0 0 1-2.621-.477 11.658 11.658 0 0 1-2.59-1.18c-.842-.512-1.615-1.206-2.32-2.084l-8.523-10.613c-.511-.637-.832-1.246-.964-1.83-.132-.584-.078-1.11.163-1.579.241-.468.659-.863 1.256-1.185.596-.32 1.364-.537 2.307-.649 1.829-.218 3.652.032 5.468.749.886.35 1.713.791 2.48 1.322a9.013 9.013 0 0 1 1.945 1.798l.859 1.081-3.842.475-.733-.92c-.432-.542-1.022-.987-1.769-1.333-.748-.346-1.489-.475-2.224-.386-.964.117-1.435.408-1.411.873.023.465.296 1.024.819 1.677l7.865 9.828c.444.554.985.997 1.623 1.328.637.329 1.391.437 2.265.321.249-.033.492-.099.729-.2.236-.1.422-.238.558-.413.11-.172.141-.392.09-.662-.049-.269-.222-.59-.521-.965l-.746-.936 3.801-.493zM483.606 102.883c-.613-.774-.967-1.481-1.064-2.123-.096-.641.012-1.197.323-1.67.3-.451.753-.821 1.358-1.111.604-.29 1.292-.48 2.064-.572a10.726 10.726 0 0 1 2.526.024c.911.108 1.823.313 2.738.616.903.324 1.77.759 2.602 1.305a8.944 8.944 0 0 1 2.149 1.971l7.83 10.004c.62.793.969 1.494 1.047 2.105.077.61-.029 1.138-.321 1.585-.302.467-.747.846-1.334 1.139a6.422 6.422 0 0 1-2.012.59c-.754.101-1.579.105-2.475.011a12 12 0 0 1-2.688-.606 11.179 11.179 0 0 1-2.584-1.21 8.759 8.759 0 0 1-2.176-1.975l-7.983-10.083zm11.748 9.591c.517.656 1.149 1.104 1.895 1.348.744.243 1.459.319 2.142.229.683-.09 1.152-.322 1.409-.696.256-.375.128-.888-.385-1.541l-7.876-10.027c-.52-.662-1.158-1.12-1.91-1.372-.754-.252-1.479-.337-2.173-.253-.695.084-1.173.315-1.434.692-.262.376-.13.898.394 1.562l7.938 10.058zM510.843 115.32l-14.752-18.905 3.599-.429 12.538 9.446.071-.009-3.041-10.578 3.568-.426 14.373 18.707-3.594.482-8.749-11.348-.072.009 2.606 8.51-1.821.239-9.87-7.613-.073.009 8.876 11.414-3.659.492zM531.473 105.098c-1.206-1.533-.439-2.947 1.587-3.203 2.021-.256 4.558.734 5.695 2.238 1.154 1.527.466 2.924-1.576 3.191-2.012.263-4.537-.691-5.706-2.226zM555.408 95.108l-3.453.427-.441-.594a5.433 5.433 0 0 0-1.725-1.497c-.702-.395-1.497-.539-2.385-.431-.479.058-.815.174-1.008.349a.956.956 0 0 0-.332.607c-.015.247.05.517.195.812.144.293.333.596.565.907.271.363.513.663.728.9.215.238.461.443.739.616.278.173.599.312.963.416.364.106.823.198 1.38.279l3.24.467c.931.126 1.745.309 2.439.549.694.24 1.321.539 1.881.898a9.33 9.33 0 0 1 1.537 1.331 20.23 20.23 0 0 1 1.448 1.757c.566.765.991 1.486 1.274 2.165.283.68.372 1.277.266 1.792-.115.537-.451.991-1.006 1.362-.557.372-1.381.632-2.475.779a9.384 9.384 0 0 1-2.564-.02 11.24 11.24 0 0 1-4.799-1.874 7.37 7.37 0 0 1-1.734-1.643l-.731-.976 3.463-.45.612.82c.357.478.865.885 1.522 1.219.656.334 1.423.443 2.298.328.582-.077.989-.2 1.219-.371.229-.17.345-.386.348-.647.002-.261-.103-.56-.316-.896a18.838 18.838 0 0 0-.775-1.118 15.69 15.69 0 0 0-.942-1.168 3.933 3.933 0 0 0-.821-.708 3.862 3.862 0 0 0-.967-.382c-.348-.086-.787-.17-1.317-.253l-3.051-.456c-1.843-.273-3.31-.762-4.397-1.464-1.089-.703-2.067-1.635-2.935-2.794-.519-.693-.887-1.367-1.102-2.023-.216-.656-.239-1.24-.072-1.753.144-.51.488-.945 1.033-1.303.544-.358 1.331-.599 2.36-.721a9.082 9.082 0 0 1 2.648.081 12.4 12.4 0 0 1 2.571.738c1.656.703 2.878 1.588 3.668 2.655l.951 1.288zM565.995 107.924l-8.121-18.877 2.855-.34 18.508 17.442-3.327.446-3.812-3.727-4.589.601 1.861 4.003-3.375.452zm3.693-7.408-6.492-6.37-.067.008 3.182 6.797 3.377-.435zM577.869 86.662l8.262 18.562-2.904.389-17.922-17.453 3.585-.428 11.84 12.296.065-.008-6.464-12.937 3.538-.421zM592.762 104.334l-12.903-17.91 9.827-1.172 1.729 2.423-6.495.788 3.786 5.272 5.627-.707 1.714 2.401-5.61.716 3.749 5.22 6.395-.844 1.8 2.523-9.619 1.29zM606.545 102.486l-10.888-15.325-3.762.456-1.728-2.423 10.748-1.282 1.697 2.405-3.722.451 10.829 15.291-3.174.427zM614.854 101.372l-12.426-17.639 3.202-.382 12.359 17.6-3.135.421zM623.058 100.272l-10.583-15.15-3.665.444-1.679-2.395 10.474-1.249 1.649 2.377-3.627.44 10.526 15.117-3.095.416zM628.027 99.605l-7.264-18.059 2.594-.309 16.718 16.753-3.028.406-3.443-3.581-4.174.546 1.668 3.832-3.071.412zm3.4-7.048-5.861-6.116-.061.008 2.851 6.504 3.071-.396zM641.436 97.807l-11.864-17.312 2.95-.352 11.695 9.873.059-.008-7.086-10.422 3.033-.362 11.647 17.183-2.797.375-11.632-9.724-.06.007 7.062 10.337-3.007.405zM654.537 96.051l-11.592-17.15 8.916-1.063 1.554 2.32-5.894.715 3.515 5.216 5.107-.642 1.541 2.299-5.093.651 4.892 7.26-2.946.394zM662.417 94.994l-6.81-17.603 2.456-.293 15.765 16.366-2.868.385-3.247-3.498-3.952.517 1.565 3.736-2.909.39zm3.242-6.85-5.525-5.973-.058.007 2.675 6.341 2.908-.375zM675.229 93.276l-11.168-16.893 2.906-.347 9.534 14.466 5.618-.741 1.561 2.383-8.451 1.132zM685.498 91.899l-10.961-16.766 2.857-.341 9.357 14.356 5.525-.729 1.532 2.365-8.31 1.115zM695.435 90.566l-1.527-2.362 2.763-.365 1.52 2.357-2.756.37zM706.279 84.055l.644 1.012c.322.506.516 1 .582 1.48.067.481.017.923-.148 1.326a2.312 2.312 0 0 1-.833 1.02c-.391.277-.889.455-1.492.536a7.924 7.924 0 0 1-1.692.028 6.466 6.466 0 0 1-1.859-.451 7.79 7.79 0 0 1-1.823-1.046c-.59-.449-1.128-1.051-1.614-1.806l-5.87-9.128c-.352-.547-.569-1.068-.652-1.564-.083-.496-.036-.94.144-1.333.179-.392.483-.72.912-.982.429-.261.978-.432 1.65-.512 1.303-.155 2.594.085 3.873.722.624.31 1.205.698 1.741 1.16.536.463.987.981 1.353 1.554l.592.93-2.743.339-.506-.792a3.562 3.562 0 0 0-1.235-1.158c-.526-.305-1.05-.426-1.574-.363-.687.083-1.027.322-1.018.716.008.394.193.872.552 1.433l5.422 8.457c.306.478.684.862 1.132 1.154.448.29.983.395 1.608.312.178-.023.352-.075.523-.156a.993.993 0 0 0 .405-.34c.082-.144.107-.33.076-.56-.03-.229-.148-.504-.354-.827l-.515-.807 2.719-.354zM703.317 75.909c-.423-.666-.663-1.271-.721-1.816-.057-.544.03-1.014.259-1.41.222-.378.551-.684.987-.92a4.076 4.076 0 0 1 1.481-.452 6.44 6.44 0 0 1 1.801.061 8.57 8.57 0 0 1 1.942.566c.639.289 1.25.672 1.835 1.149a6.955 6.955 0 0 1 1.5 1.707l5.425 8.625c.43.684.668 1.286.713 1.806.045.52-.041.967-.257 1.341a2.508 2.508 0 0 1-.974.944 4.053 4.053 0 0 1-1.45.465 6.31 6.31 0 0 1-1.77-.034 7.474 7.474 0 0 1-1.91-.562 7.507 7.507 0 0 1-1.825-1.073 6.81 6.81 0 0 1-1.519-1.714l-5.517-8.683zm8.214 8.332c.358.565.802.957 1.331 1.177.528.219 1.037.296 1.527.231.49-.065.829-.254 1.02-.567.189-.314.107-.752-.249-1.316l-5.453-8.642c-.36-.57-.807-.969-1.339-1.194-.534-.226-1.049-.31-1.546-.249-.497.06-.842.249-1.035.563-.193.315-.108.759.254 1.33l5.49 8.667zM722.565 86.928l-10.228-16.303 2.579-.308 8.813 8.227.051-.007-1.997-9.04 2.565-.306 10.001 16.155-2.593.348-6.087-9.804-.052.006 1.723 7.282-1.311.172-6.943-6.638-.052.007 6.164 9.854-2.633.355zM737.56 78.581c-.841-1.326-.266-2.518 1.198-2.703 1.46-.185 3.272.7 4.066 2.002.807 1.321.287 2.501-1.191 2.694-1.454.191-3.257-.665-4.073-1.993zM755.008 70.45l-2.505.309-.309-.514a4.219 4.219 0 0 0-1.222-1.305c-.501-.348-1.073-.483-1.716-.405-.347.042-.592.136-.734.282a.857.857 0 0 0-.249.512c-.016.211.027.442.127.696.099.252.23.514.393.783.19.314.36.574.511.779.151.207.325.385.523.537.198.152.428.276.689.371.261.096.592.183.992.26l2.336.451a8.122 8.122 0 0 1 1.756.508 6.01 6.01 0 0 1 1.347.798c.391.332.755.72 1.091 1.162.335.442.675.95 1.02 1.526.398.663.693 1.287.887 1.872.194.586.248 1.098.163 1.537-.093.457-.344.84-.753 1.148-.41.308-1.012.516-1.806.623a5.768 5.768 0 0 1-1.857-.061 6.988 6.988 0 0 1-1.828-.616 7.909 7.909 0 0 1-1.614-1.067 5.89 5.89 0 0 1-1.227-1.433l-.512-.846 2.512-.326.429.71c.25.415.611.77 1.081 1.067.47.296 1.023.403 1.659.319.423-.056.719-.154.888-.296a.707.707 0 0 0 .263-.547c.006-.223-.065-.481-.213-.771-.149-.291-.33-.613-.543-.968-.249-.413-.47-.752-.662-1.013a3.044 3.044 0 0 0-.583-.618 2.594 2.594 0 0 0-.694-.342c-.25-.079-.567-.158-.949-.238l-2.199-.44c-1.328-.264-2.379-.704-3.153-1.321-.774-.618-1.465-1.428-2.072-2.43a6.524 6.524 0 0 1-.761-1.743c-.145-.563-.152-1.061-.022-1.496.112-.433.368-.798.767-1.095.399-.297.971-.49 1.717-.579a5.558 5.558 0 0 1 1.912.11 7.955 7.955 0 0 1 1.845.67c1.185.626 2.055 1.401 2.609 2.324l.666 1.116zM762.465 81.578l-5.569-16.267 2.074-.247 13.148 15.22-2.428.326-2.708-3.255-3.343.438 1.284 3.456-2.458.329zm2.805-6.276-4.604-5.551-.048.006 2.193 5.862 2.459-.317zM771.446 63.575l5.708 16.033-2.123.285-12.735-15.226 2.609-.311 8.402 10.711.047-.006-4.486-11.178 2.578-.308zM782.005 78.957l-9.107-15.555 7.179-.856 1.221 2.103-4.748.576 2.672 4.577 4.117-.517 1.212 2.087-4.107.524 2.649 4.538 4.687-.619 1.275 2.197-7.05.945zM792.111 77.602l-7.709-13.329-2.753.334-1.22-2.103 7.87-.939 1.201 2.089-2.728.331 7.673 13.303-2.334.314zM798.218 76.783l-8.812-15.35 2.349-.28 8.771 15.32-2.308.31zM804.259 75.973l-7.52-13.196-2.693.327-1.19-2.082 7.697-.918 1.172 2.068-2.668.324 7.485 13.171-2.283.306zM807.924 75.482l-5.045-15.655 1.911-.228 12.037 14.689-2.24.3-2.479-3.142-3.082.404 1.165 3.328-2.267.304zm2.617-6.016-4.214-5.356-.044.005 1.99 5.643 2.268-.292zM817.833 74.153l-8.462-15.1 2.177-.26 8.462 8.686.044-.006-5.06-9.091 2.241-.267 8.326 15.002-2.073.278-8.43-8.571-.044.006 5.044 9.025-2.225.298zM827.542 72.851l-8.292-14.977 6.604-.788 1.112 2.025-4.368.53 2.514 4.553 3.788-.476 1.104 2.009-3.779.483 3.505 6.348-2.188.293zM833.396 72.066l-4.764-15.311 1.823-.217 11.436 14.389-2.138.287-2.355-3.078-2.941.385 1.101 3.255-2.162.29zm2.514-5.871-4.002-5.246-.042.005 1.88 5.52 2.164-.279zM842.935 70.787l-8.025-14.78 2.16-.258 6.853 12.657 4.193-.553 1.125 2.089-6.306.845zM850.6 69.759l-7.894-14.682 2.13-.254 6.741 12.573 4.132-.545 1.107 2.075-6.216.833zM858.035 68.762l-1.104-2.073 2.07-.273 1.099 2.069-2.065.277zM866.246 63.279l.467.889c.234.445.371.876.413 1.294a2.54 2.54 0 0 1-.131 1.15c-.13.348-.344.639-.641.873-.297.234-.672.381-1.125.442a5.06 5.06 0 0 1-1.266-.003 4.306 4.306 0 0 1-1.383-.421 5.685 5.685 0 0 1-1.348-.937c-.435-.398-.827-.929-1.178-1.593l-4.242-8.005c-.254-.479-.408-.934-.463-1.365-.054-.431-.012-.816.128-1.153.139-.337.371-.617.695-.838.324-.221.737-.361 1.24-.421.975-.116 1.935.111 2.881.681.461.278.889.622 1.283 1.031.394.409.723.865.987 1.368l.429.816-2.057.254-.366-.694a2.867 2.867 0 0 0-.904-1.022c-.389-.272-.778-.385-1.17-.337-.516.063-.771.265-.772.607 0 .342.13.759.39 1.25l3.92 7.418c.222.419.498.759.829 1.019.329.259.729.358 1.198.296.134-.018.265-.06.393-.128a.778.778 0 0 0 .308-.289c.063-.123.086-.285.066-.485-.018-.199-.103-.44-.253-.723l-.373-.708 2.045-.266zM864.155 56.163c-.306-.584-.477-1.113-.511-1.586-.035-.473.037-.879.216-1.22.171-.325.422-.586.752-.784.33-.199.701-.322 1.115-.372a4.186 4.186 0 0 1 1.347.078c.484.101.966.273 1.446.519.474.26.926.601 1.356 1.024.431.423.797.924 1.099 1.504l3.937 7.577c.312.601.482 1.128.507 1.582.026.453-.045.84-.213 1.162a2.03 2.03 0 0 1-.746.806 2.76 2.76 0 0 1-1.095.382 4.108 4.108 0 0 1-1.327-.057 5.045 5.045 0 0 1-1.424-.518 5.513 5.513 0 0 1-1.351-.96 5.733 5.733 0 0 1-1.112-1.513l-3.996-7.624zm6.021 7.358c.26.497.587.844.98 1.044.393.199.773.273 1.141.225.368-.049.626-.208.773-.477.147-.27.091-.652-.167-1.148l-3.955-7.591c-.261-.5-.588-.853-.984-1.056-.396-.204-.781-.284-1.153-.239-.373.045-.634.204-.783.474-.15.27-.094.657.169 1.159l3.979 7.609zM878.416 66.029l-7.426-14.325 1.939-.231 6.49 7.28.039-.005-1.363-7.891 1.932-.23 7.28 14.211-1.958.262-4.431-8.627-.039.005 1.184 6.364-.988.13-5.115-5.878-.04.005 4.48 8.665-1.984.265zM889.831 58.989c-.615-1.168-.162-2.198.944-2.338 1.105-.14 2.458.658 3.038 1.805.589 1.164.179 2.185-.94 2.331-1.101.145-2.448-.629-3.042-1.798zM903.134 52.15l-1.901.235-.226-.453c-.23-.46-.53-.845-.904-1.156a1.631 1.631 0 0 0-1.292-.377c-.263.032-.449.11-.559.236a.803.803 0 0 0-.195.443c-.016.183.014.386.085.609.072.221.167.451.286.688.139.277.263.505.374.687.112.182.24.341.387.476.148.135.319.247.515.333.197.088.445.168.747.241l1.76.427c.506.117.948.273 1.322.469.374.196.71.435 1.008.716.291.296.561.64.808 1.031.248.391.498.839.75 1.347.291.585.505 1.134.644 1.649.139.515.171.963.101 1.345a1.671 1.671 0 0 1-.588.991c-.316.263-.775.436-1.378.517a3.802 3.802 0 0 1-1.406-.082 4.873 4.873 0 0 1-1.375-.566 6.011 6.011 0 0 1-1.205-.956 5.064 5.064 0 0 1-.906-1.269l-.375-.746 1.904-.247.314.626a2.7 2.7 0 0 0 .802.948c.352.266.768.367 1.252.303.321-.042.546-.124.677-.246.13-.121.2-.279.207-.474.008-.195-.043-.421-.151-.677a14.44 14.44 0 0 0-.397-.853 12.521 12.521 0 0 0-.485-.895 2.596 2.596 0 0 0-.432-.548 1.864 1.864 0 0 0-.521-.309 6.63 6.63 0 0 0-.715-.221l-1.657-.416c-1-.249-1.788-.649-2.364-1.198-.575-.55-1.086-1.267-1.529-2.149a6.205 6.205 0 0 1-.548-1.53c-.102-.493-.099-.927.006-1.304a1.72 1.72 0 0 1 .596-.945c.305-.253.74-.414 1.306-.481a3.655 3.655 0 0 1 1.444.122c.485.138.947.341 1.385.609.887.562 1.533 1.251 1.939 2.064l.49.986zM908.616 61.979 904.64 47.69l1.574-.188 9.749 13.491-1.85.248-2.007-2.887-2.543.333.922 3.04-1.869.252zm2.222-5.443-3.409-4.917-.036.004 1.575 5.153 1.87-.24zM915.701 46.371l4.102 14.108-1.619.217-9.443-13.495 1.983-.237 6.221 9.483.035-.005-3.241-9.838 1.962-.233zM923.505 59.982l-6.698-13.743 5.472-.653.899 1.858-3.622.439 1.965 4.042 3.143-.395.893 1.845-3.137.4 1.951 4.013 3.582-.473.94 1.944-5.388.723zM931.232 58.946l-5.684-11.79-2.102.255-.898-1.857 6.009-.717.885 1.847-2.085.253 5.66 11.77-1.785.239zM935.908 58.319l-6.505-13.582 1.797-.214 6.477 13.559-1.769.237zM940.543 57.697l-5.559-11.685-2.062.25-.878-1.841 5.894-.703.866 1.83-2.045.248 5.536 11.666-1.752.235zM943.356 57.32l-3.636-13.814 1.466-.175 9.015 13.071-1.724.231-1.856-2.797-2.369.31.845 2.94-1.741.234zm2.092-5.246-3.151-4.762-.034.004 1.442 4.983 1.743-.225zM950.976 56.298l-6.273-13.386 1.672-.199 6.369 7.748.034-.004-3.754-8.06 1.724-.206 6.183 13.309-1.598.214-6.352-7.656-.034.004 3.743 8.006-1.714.23zM958.458 55.295l-6.16-13.289 5.087-.607.826 1.796-3.368.408 1.868 4.039 2.922-.368.821 1.784-2.917.373 2.607 5.637-1.686.227zM962.976 54.689l-3.45-13.545 1.406-.168 8.613 12.832-1.653.222-1.774-2.746-2.273.298.803 2.884-1.672.223zm2.021-5.135-3.008-4.675-.033.004 1.371 4.886 1.67-.215zM970.353 53.7l-5.982-13.134 1.67-.199 5.11 11.247 3.247-.429.841 1.859-4.886.656zM976.294 52.903 970.4 39.847l1.649-.197 5.035 11.181 3.206-.423.828 1.848-4.824.647zM982.065 52.129l-.826-1.846 1.607-.212.823 1.843-1.604.215zM988.509 47.4l.35.792c.175.396.276.78.304 1.15.027.371-.013.709-.119 1.015-.105.306-.275.56-.508.763a1.64 1.64 0 0 1-.88.375 3.48 3.48 0 0 1-.983-.02 3.061 3.061 0 0 1-1.068-.392 4.432 4.432 0 0 1-1.031-.847c-.332-.358-.629-.832-.892-1.423l-3.175-7.126a3.884 3.884 0 0 1-.338-1.211c-.037-.381.002-.72.115-1.016.113-.296.297-.54.551-.731.254-.191.576-.309.966-.356.758-.09 1.499.122 2.224.638.354.251.681.561.981.927.299.366.548.773.746 1.221l.321.726-1.597.197-.274-.618a2.454 2.454 0 0 0-.688-.914c-.296-.245-.598-.35-.902-.313-.399.048-.601.224-.606.526-.004.302.091.671.286 1.109l2.935 6.605c.166.374.376.677.628.912.253.234.562.326.925.278a.84.84 0 0 0 .308-.107.646.646 0 0 0 .243-.251.872.872 0 0 0 .058-.428 2.014 2.014 0 0 0-.186-.643l-.28-.631 1.586-.207zM986.985 41.083c-.229-.52-.353-.989-.374-1.408-.019-.419.041-.776.185-1.075.138-.285.336-.512.595-.683.259-.171.548-.276.871-.314.322-.038.67-.01 1.045.086.373.096.745.254 1.115.477.364.236.71.543 1.04.922.328.379.605.827.832 1.344l2.956 6.755c.235.536.359 1.005.374 1.407.013.401-.047.743-.182 1.026-.141.296-.338.53-.591.703-.255.172-.541.28-.858.323a2.817 2.817 0 0 1-1.031-.069 3.628 3.628 0 0 1-1.099-.479 4.393 4.393 0 0 1-1.037-.868 5.146 5.146 0 0 1-.843-1.353l-2.998-6.794zm4.575 6.585c.195.443.443.755.746.937.302.181.597.253.884.215.287-.038.491-.175.609-.411.117-.237.08-.575-.114-1.018l-2.968-6.765c-.195-.446-.446-.761-.75-.947-.305-.185-.603-.261-.893-.226-.29.035-.495.172-.615.409s-.081.58.116 1.026l2.985 6.78zM997.935 50.001l-5.579-12.773 1.51-.18 4.95 6.525.031-.004-.952-7.001 1.507-.18 5.479 12.681-1.531.205-3.335-7.7-.031.004.835 5.651-.772.101-3.902-5.272-.031.004 3.369 7.731-1.548.208zM1006.93 43.923c-.464-1.043-.096-1.95.769-2.059.865-.109 1.911.616 2.349 1.64.444 1.04.11 1.94-.766 2.054-.862.112-1.903-.591-2.352-1.635zM1017.422 38.03l-1.49.184-.171-.405a3.116 3.116 0 0 0-.692-1.037c-.289-.28-.623-.397-1.005-.351-.206.025-.354.092-.44.202a.764.764 0 0 0-.16.391c-.014.162.005.343.059.541.052.197.124.402.213.614.105.247.2.452.284.614.084.163.182.305.297.427.113.122.246.223.399.302.152.08.345.155.58.224l1.372.402c.395.11.737.255 1.028.433.29.179.55.395.78.649.225.266.431.575.62.926.188.351.378.752.569 1.206.22.523.382 1.014.483 1.472.102.459.121.857.06 1.196a1.525 1.525 0 0 1-.474.872c-.25.229-.612.376-1.086.44a2.642 2.642 0 0 1-1.099-.092 3.579 3.579 0 0 1-1.069-.521 4.846 4.846 0 0 1-.93-.865 4.493 4.493 0 0 1-.692-1.138l-.283-.667 1.494-.194.237.56c.138.327.344.611.615.852s.596.336.975.286c.252-.033.43-.103.534-.209a.619.619 0 0 0 .169-.418 1.573 1.573 0 0 0-.108-.603 14.97 14.97 0 0 0-.668-1.564 2.24 2.24 0 0 0-.331-.492 1.447 1.447 0 0 0-.402-.281 4.98 4.98 0 0 0-.556-.206l-1.291-.391c-.779-.234-1.39-.599-1.833-1.094-.443-.495-.832-1.137-1.166-1.926a5.984 5.984 0 0 1-.408-1.364c-.072-.438-.065-.823.022-1.157.077-.332.237-.609.478-.83.243-.221.586-.358 1.027-.411a2.547 2.547 0 0 1 1.127.126c.378.128.736.314 1.075.558.686.51 1.183 1.129 1.489 1.856l.368.883zM1021.586 46.83l-2.923-12.738 1.236-.147 7.466 12.111-1.456.195-1.537-2.593-1.999.262.682 2.714-1.469.196zm1.815-4.806-2.607-4.411-.028.003 1.165 4.597 1.47-.189zM1027.354 33.055l3.034 12.595-1.276.171-7.23-12.113 1.558-.186 4.755 8.505.028-.004-2.413-8.784 1.544-.184zM1033.306 45.258l-5.082-12.307 4.309-.514.682 1.663-2.854.346 1.491 3.619 2.478-.311.678 1.653-2.473.316 1.481 3.595 2.826-.373.715 1.743-4.251.57zM1039.403 44.44l-4.32-10.567-1.657.201-.682-1.663 4.74-.565.673 1.654-1.646.2 4.304 10.551-1.412.189zM1043.1 43.945l-4.949-12.178 1.418-.169 4.93 12.159-1.399.188zM1046.767 43.453l-4.234-10.483-1.629.198-.668-1.649 4.657-.555.66 1.641-1.618.196 4.218 10.467-1.386.185zM1048.994 43.154l-2.691-12.36 1.16-.138 6.958 11.77-1.366.183-1.433-2.52-1.877.246.63 2.633-1.381.186zm1.722-4.651-2.427-4.286-.027.003 1.075 4.46 1.379-.177zM1055.036 42.344l-4.788-12.02 1.324-.158 4.939 6.99.027-.003-2.867-7.237 1.367-.163 4.726 11.957-1.27.17-4.93-6.915-.027.003 2.859 7.193-1.36.183zM1060.978 41.547l-4.709-11.941 4.038-.482.632 1.613-2.675.324 1.428 3.629 2.322-.292.628 1.603-2.318.296 1.995 5.069-1.341.181zM1064.571 41.065l-2.563-12.144 1.118-.133 6.676 11.576-1.317.177-1.375-2.478-1.809.237.601 2.588-1.331.177zm1.671-4.564-2.328-4.215-.026.003 1.026 4.383 1.328-.171zM1070.446 40.278l-4.585-11.815 1.329-.159 3.918 10.119 2.59-.342.646 1.675-3.898.522zM1075.184 39.642l-4.524-11.752 1.314-.157 3.865 10.065 2.56-.338.637 1.666-3.852.516zM1079.793 39.024l-.635-1.664 1.284-.169.633 1.662-1.282.171zM1084.996 34.868l.27.714c.135.357.211.702.228 1.034.017.333-.019.635-.108.908a1.565 1.565 0 0 1-.416.677 1.242 1.242 0 0 1-.707.325 2.481 2.481 0 0 1-.785-.031 2.277 2.277 0 0 1-.848-.365 3.694 3.694 0 0 1-.812-.772c-.26-.325-.491-.754-.694-1.286l-2.441-6.42a3.82 3.82 0 0 1-.254-1.088 2.223 2.223 0 0 1 .104-.908c.094-.264.244-.48.448-.648.205-.168.463-.27.774-.307.605-.072 1.194.127 1.765.597.279.229.537.51.771.841.234.332.427.699.58 1.103l.247.654-1.277.158-.211-.557a2.216 2.216 0 0 0-.537-.827c-.233-.223-.472-.32-.716-.291-.319.039-.482.193-.49.463-.007.27.064.602.214.996l2.258 5.951c.128.337.291.612.49.825.199.212.444.3.735.261a.613.613 0 0 0 .247-.092.543.543 0 0 0 .197-.222.871.871 0 0 0 .052-.382 1.955 1.955 0 0 0-.141-.579l-.215-.569 1.272-.163zM1083.859 29.19c-.177-.469-.27-.89-.281-1.266-.01-.375.043-.695.161-.961.114-.253.275-.455.483-.605.208-.15.441-.241.699-.272a2.04 2.04 0 0 1 .834.089c.297.09.592.236.885.44.288.216.561.495.819.838.258.344.473.748.648 1.215l2.279 6.092c.181.484.275.906.281 1.266.005.36-.047.666-.159.918a1.52 1.52 0 0 1-.482.623 1.487 1.487 0 0 1-.69.278 2.007 2.007 0 0 1-.824-.076 2.793 2.793 0 0 1-.873-.443 3.643 3.643 0 0 1-.818-.792 4.705 4.705 0 0 1-.656-1.223l-2.306-6.121zm3.571 5.957c.15.4.345.682.585.849.24.166.474.234.704.204a.598.598 0 0 0 .492-.361c.097-.211.071-.515-.078-.914l-2.288-6.101c-.151-.402-.347-.688-.587-.857-.241-.169-.479-.241-.711-.213a.595.595 0 0 0-.496.359c-.099.211-.072.518.08.921l2.299 6.113zM1092.499 37.32l-4.302-11.522 1.209-.144 3.878 5.91.025-.003-.675-6.292 1.209-.144 4.232 11.448-1.229.165-2.576-6.952-.025.003.598 5.081-.619.081-3.057-4.777-.025.003 2.599 6.977-1.242.166zM1099.782 31.976c-.359-.942-.053-1.752.642-1.84.695-.088 1.526.576 1.864 1.501.344.94.064 1.744-.64 1.836-.692.091-1.519-.554-1.866-1.497zM1108.281 26.806l-1.2.148-.132-.366a2.857 2.857 0 0 0-.543-.94c-.229-.255-.496-.364-.803-.327-.166.02-.285.079-.356.177a.728.728 0 0 0-.133.349c-.013.146 0 .308.041.486.04.178.094.363.164.554.081.223.155.408.221.555.065.148.143.276.233.387.089.111.195.203.317.276.121.074.276.143.464.208l1.098.377c.316.104.589.238.821.402.231.164.437.362.619.592.177.242.34.522.487.84.147.317.294.681.443 1.092.171.473.295.917.371 1.33.076.414.087.773.034 1.077a1.425 1.425 0 0 1-.392.779c-.204.203-.497.331-.879.382a1.89 1.89 0 0 1-.883-.097 2.762 2.762 0 0 1-.853-.482 4.103 4.103 0 0 1-.737-.789 4.167 4.167 0 0 1-.542-1.032l-.219-.603 1.203-.156.184.506c.107.296.269.554.484.774.215.22.475.31.781.269.203-.027.347-.087.432-.181a.588.588 0 0 0 .141-.374 1.577 1.577 0 0 0-.079-.544 15.13 15.13 0 0 0-.231-.69 10.34 10.34 0 0 0-.287-.724 2.037 2.037 0 0 0-.26-.447 1.188 1.188 0 0 0-.32-.258 3.651 3.651 0 0 0-.445-.192l-1.033-.366c-.623-.22-1.11-.555-1.459-1.005-.35-.45-.654-1.032-.913-1.744a5.842 5.842 0 0 1-.311-1.23c-.052-.394-.042-.74.032-1.039.066-.297.198-.544.394-.74.198-.196.475-.315.83-.357.3-.036.601.006.904.126.302.119.587.29.857.513a3.944 3.944 0 0 1 1.174 1.685l.281.799zM1111.522 34.769l-2.196-11.491.996-.119 5.864 10.984-1.176.158-1.206-2.352-1.613.211.516 2.45-1.185.159zm1.52-4.301-2.044-3.998-.023.003.881 4.148 1.186-.153zM1116.335 22.442l2.293 11.374-1.031.138-5.676-10.986 1.257-.15 3.727 7.708.022-.003-1.838-7.934 1.246-.147zM1120.987 33.5l-3.949-11.141 3.481-.415.53 1.505-2.306.28 1.159 3.276 2.003-.252.527 1.497-2 .255 1.152 3.257 2.286-.302.556 1.58-3.439.46zM1125.921 32.838l-3.362-9.573-1.34.163-.53-1.505 3.833-.457.524 1.498-1.332.161 3.35 9.56-1.143.153zM1128.916 32.437l-3.854-11.035 1.148-.137 3.84 11.02-1.134.152zM1131.89 32.038l-3.3-9.504-1.319.16-.52-1.494 3.773-.45.514 1.487-1.311.159 3.289 9.491-1.126.151zM1133.697 31.796l-2.031-11.182.94-.112 5.498 10.703-1.11.149-1.131-2.292-1.524.199.479 2.384-1.121.151zm1.451-4.178-1.915-3.895-.022.003.818 4.037 1.119-.145zM1138.604 31.138l-3.739-10.905 1.075-.128 3.922 6.366.022-.003-2.239-6.566 1.11-.132 3.693 10.854-1.033.139-3.918-6.302-.022.003 2.233 6.529-1.104.145zM1143.437 30.49l-3.682-10.84 3.283-.392.494 1.464-2.175.264 1.116 3.293 1.89-.238.492 1.456-1.887.241 1.561 4.604-1.092.148zM1146.363 30.097l-1.94-11.005.91-.108 5.294 10.541-1.074.144-1.089-2.258-1.474.193.458 2.347-1.085.146zm1.412-4.107-1.844-3.836-.022.003.782 3.973 1.084-.14zM1151.151 29.455l-3.592-10.737 1.083-.129 3.07 9.195 2.113-.279.506 1.523-3.18.427zM1155.018 28.937l-3.547-10.685 1.072-.128 3.032 9.15 2.092-.276.5 1.516-3.149.423zM1158.784 28.432l-.499-1.515 1.05-.139.497 1.513-1.048.141zM1163.079 24.727l.212.65c.106.325.164.639.174.94.01.302-.023.576-.098.822a1.46 1.46 0 0 1-.348.609.972.972 0 0 1-.582.286 1.837 1.837 0 0 1-.64-.037 1.79 1.79 0 0 1-.688-.34 3.166 3.166 0 0 1-.654-.709c-.208-.297-.392-.688-.552-1.173l-1.917-5.841a3.784 3.784 0 0 1-.195-.988 2.234 2.234 0 0 1 .095-.821c.08-.238.204-.432.373-.582.169-.15.381-.24.635-.27.495-.059.972.127 1.433.559.225.211.432.468.62.77.187.303.341.638.46 1.005l.194.595-1.044.129-.165-.506a2.045 2.045 0 0 0-.429-.755c-.188-.205-.382-.295-.581-.271-.261.032-.396.17-.405.414-.009.244.045.546.163.904l1.774 5.415c.1.307.231.557.39.753.16.195.359.277.597.245a.477.477 0 0 0 .367-.28.876.876 0 0 0 .047-.346 1.963 1.963 0 0 0-.108-.526l-.169-.518 1.041-.133zM1162.216 19.57a3.933 3.933 0 0 1-.215-1.15c-.004-.34.043-.629.142-.868.096-.228.229-.409.402-.543.172-.134.363-.214.574-.239.211-.025.437.005.68.089.242.085.481.22.718.408.233.199.452.455.66.768.207.314.378.683.516 1.108l1.794 5.548c.143.441.214.825.216 1.151 0 .326-.046.603-.14.83a1.366 1.366 0 0 1-.401.559 1.145 1.145 0 0 1-.568.244 1.494 1.494 0 0 1-.673-.078 2.196 2.196 0 0 1-.708-.412 3.15 3.15 0 0 1-.659-.727 4.474 4.474 0 0 1-.522-1.116l-1.816-5.572zm2.849 5.437c.118.364.274.622.468.776.194.153.385.218.573.193a.495.495 0 0 0 .406-.322c.081-.19.064-.466-.053-.829l-1.8-5.555c-.118-.366-.276-.627-.47-.783-.195-.156-.388-.223-.578-.2-.19.023-.326.13-.409.32-.083.19-.065.469.054.835l1.809 5.565zM1169.186 27.037l-3.386-10.494.99-.118 3.105 5.4.02-.003-.48-5.713.991-.118 3.335 10.432-1.009.135-2.03-6.336-.02.003.432 4.615-.508.067-2.447-4.367-.02.003 2.047 6.357-1.02.137zM1175.212 22.27c-.284-.859-.024-1.591.547-1.663.571-.072 1.244.54 1.511 1.383.271.857.033 1.584-.546 1.66-.568.075-1.239-.52-1.512-1.38zM1182.243 17.668l-.987.122-.105-.334a2.657 2.657 0 0 0-.435-.859c-.185-.234-.403-.336-.656-.305-.136.017-.235.069-.294.157a.702.702 0 0 0-.113.316c-.012.132-.003.28.028.442.03.162.073.331.128.505.064.204.122.372.175.507.052.135.114.253.187.354a1 1 0 0 0 .257.254c.098.068.225.133.378.194l.897.354c.258.098.481.222.67.374.188.152.355.333.502.545.143.222.273.478.391.768.117.29.234.622.352.997.135.432.232.836.29 1.213.058.377.063.703.016.979a1.347 1.347 0 0 1-.331.703c-.17.182-.412.295-.727.337a1.425 1.425 0 0 1-.724-.098 2.232 2.232 0 0 1-.695-.448 3.65 3.65 0 0 1-.597-.725 3.952 3.952 0 0 1-.434-.943l-.173-.55.99-.129.145.462c.085.27.215.506.389.708a.683.683 0 0 0 .638.254c.167-.022.286-.075.357-.16a.565.565 0 0 0 .12-.338c.01-.141-.01-.306-.059-.495-.05-.189-.11-.398-.182-.629a9.58 9.58 0 0 0-.228-.661 1.88 1.88 0 0 0-.209-.409.978.978 0 0 0-.26-.237 2.794 2.794 0 0 0-.363-.179l-.844-.344c-.509-.206-.905-.516-1.186-.928-.282-.413-.525-.944-.729-1.594a5.764 5.764 0 0 1-.241-1.12 2.821 2.821 0 0 1 .038-.943c.057-.269.168-.492.332-.668.164-.176.393-.281.685-.316.247-.029.494.012.74.123.247.111.479.27.698.475.443.429.758.943.945 1.543l.224.726zM1184.817 24.941l-1.675-10.466.819-.098 4.698 10.048-.969.13-.966-2.152-1.328.174.397 2.233-.976.131zm1.298-3.893-1.635-3.656-.019.002.678 3.779.976-.125zM1188.914 13.786l1.76 10.369-.85.114-4.546-10.049 1.035-.123 2.98 7.048.019-.002-1.423-7.233 1.025-.124zM1192.62 23.894l-3.128-10.177 2.87-.342.42 1.375-1.902.231.918 2.991 1.653-.208.418 1.368-1.651.211.913 2.976 1.888-.249.441 1.444-2.84.38zM1196.695 23.348l-2.666-8.749-1.106.134-.42-1.374 3.163-.377.415 1.369-1.099.133 2.657 8.738-.944.126zM1199.171 23.016l-3.057-10.088.948-.113 3.047 10.075-.938.126zM1201.63 22.686l-2.62-8.692-1.09.132-.412-1.365 3.119-.372.408 1.359-1.084.131 2.611 8.681-.932.126zM1203.126 22.485l-1.555-10.209.778-.093 4.427 9.812-.92.123-.911-2.102-1.262.165.37 2.178-.927.126zm1.245-3.791-1.54-3.57-.018.002.631 3.687.927-.119zM1207.19 21.94l-2.972-9.979.89-.106 3.175 5.843.018-.002-1.781-6.009.92-.11 2.938 9.936-.857.115-3.173-5.789-.018.002 1.776 5.976-.916.123zM1211.198 21.403l-2.93-9.925 2.722-.325.393 1.34-1.804.219.888 3.015 1.568-.197.391 1.334-1.565.2 1.243 4.217-.906.122zM1213.626 21.077l-1.488-10.061.755-.09 4.275 9.676-.893.12-.879-2.073-1.224.16.354 2.147-.9.121zm1.216-3.733-1.487-3.52-.018.002.605 3.634.9-.116zM1217.604 20.544l-2.863-9.838.899-.107 2.447 8.425 1.757-.232.404 1.397-2.644.355zM1220.82 20.113l-2.83-9.794.891-.106 2.419 8.388 1.741-.23.399 1.391-2.62.351zM1223.954 19.692l-.399-1.39.874-.115.397 1.388-.872.117zM1227.566 16.352l.17.597c.085.299.13.586.135.861.005.276-.025.526-.091.75a1.351 1.351 0 0 1-.296.553.78.78 0 0 1-.487.255 1.39 1.39 0 0 1-.532-.041 1.428 1.428 0 0 1-.568-.319 2.813 2.813 0 0 1-.536-.655c-.17-.274-.319-.634-.446-1.078l-1.531-5.357a3.703 3.703 0 0 1-.151-.904c-.01-.283.02-.533.088-.749.069-.216.174-.392.316-.528a.908.908 0 0 1 .531-.241c.412-.049.807.126 1.186.524.185.195.354.432.507.71.152.279.277.586.372.923l.155.546-.87.107-.132-.464a1.912 1.912 0 0 0-.348-.694c-.154-.189-.314-.273-.48-.253-.217.026-.331.151-.341.375-.01.223.032.499.126.828l1.417 4.967c.08.281.186.512.317.692.131.18.296.257.494.231a.363.363 0 0 0 .17-.072c.056-.04.102-.1.138-.18a.891.891 0 0 0 .043-.316 1.929 1.929 0 0 0-.084-.482l-.135-.475.863-.111zM1226.903 11.628a3.898 3.898 0 0 1-.166-1.053c0-.311.042-.575.128-.792.082-.208.195-.372.34-.493a.903.903 0 0 1 .48-.213 1.15 1.15 0 0 1 .565.088c.2.08.398.206.593.38.191.184.372.42.541.709.169.289.308.629.417 1.018l1.435 5.093c.114.405.17.757.167 1.056a2.144 2.144 0 0 1-.126.758 1.25 1.25 0 0 1-.34.507.913.913 0 0 1-.475.217 1.139 1.139 0 0 1-.559-.079 1.816 1.816 0 0 1-.585-.384 2.794 2.794 0 0 1-.541-.672 4.278 4.278 0 0 1-.423-1.026l-1.451-5.114zm2.313 5.001c.095.334.222.572.381.715.16.142.318.203.475.182.157-.021.271-.117.342-.29.07-.173.058-.426-.036-.759l-1.439-5.099c-.095-.335-.223-.576-.383-.72-.161-.145-.321-.208-.479-.189-.158.019-.273.116-.344.289-.071.173-.059.428.036.764l1.447 5.107zM1232.627 18.529l-2.71-9.633.826-.098 2.529 4.97.017-.002-.34-5.231.827-.099 2.671 9.581-.843.113-1.626-5.82-.017.002.311 4.228-.424.056-1.993-4.02-.017.002 1.639 5.838-.85.113zM1237.702 14.23c-.228-.789-.003-1.457.474-1.517.477-.06 1.033.507 1.247 1.282.218.788.011 1.451-.473 1.515-.476.062-1.029-.49-1.248-1.28zM1243.622 10.085l-.826.102-.084-.307a2.54 2.54 0 0 0-.355-.791c-.152-.216-.333-.311-.545-.286-.114.014-.197.061-.248.141a.688.688 0 0 0-.098.288 1.54 1.54 0 0 0 .019.405c.024.149.058.304.102.464.051.187.098.342.141.466.042.124.093.233.152.326a.91.91 0 0 0 .212.236c.081.064.186.124.314.181l.746.334c.215.092.4.209.556.349.156.141.293.309.414.504.117.205.223.441.319.708.095.267.189.572.284.917.109.397.185.769.23 1.115.045.346.045.645.003.897-.045.262-.14.476-.284.641-.144.165-.348.266-.611.301a1.097 1.097 0 0 1-.604-.097 1.87 1.87 0 0 1-.576-.418 3.285 3.285 0 0 1-.491-.671 3.827 3.827 0 0 1-.353-.869l-.139-.506.828-.108.117.425c.068.248.174.466.318.653.143.187.32.267.531.239.14-.018.24-.066.3-.143a.55.55 0 0 0 .104-.309 1.556 1.556 0 0 0-.044-.454 14.954 14.954 0 0 0-.329-1.186 1.834 1.834 0 0 0-.17-.377.836.836 0 0 0-.215-.22 2.273 2.273 0 0 0-.302-.168l-.702-.324a2.183 2.183 0 0 1-.981-.862c-.231-.381-.429-.87-.593-1.467a5.811 5.811 0 0 1-.19-1.028 2.804 2.804 0 0 1 .042-.863c.051-.246.146-.449.284-.609a.87.87 0 0 1 .576-.283c.206-.025.412.016.617.12.205.104.397.251.578.442.365.397.623.871.774 1.422l.179.67zM1245.699 16.776l-1.292-9.608.686-.082 3.827 9.258-.812.109-.786-1.984-1.113.146.309 2.051-.819.11zm1.126-3.555-1.33-3.367-.016.002.528 3.471.818-.106zM1249.242 6.591l1.367 9.527-.713.096-3.701-9.259.867-.103 2.421 6.491.016-.002-1.117-6.646.86-.104zM1252.242 15.899l-2.515-9.365 2.408-.287.338 1.265-1.596.194.738 2.753 1.387-.174.336 1.259-1.385.177.734 2.739 1.585-.209.355 1.33-2.385.318zM1255.664 15.44l-2.146-8.056-.928.113-.338-1.265 2.655-.317.334 1.26-.923.112 2.139 8.046-.793.107zM1257.745 15.161l-2.462-9.29.796-.095 2.454 9.279-.788.106zM1259.813 14.884l-2.111-8.007-.916.111-.332-1.257 2.621-.313.329 1.252-.911.111 2.104 7.997-.784.106zM1261.071 14.715l-1.202-9.391.654-.078 3.621 9.057-.775.104-.744-1.941-1.062.139.289 2.005-.781.105zm1.084-3.47-1.257-3.294-.016.002.493 3.392.78-.1zM1264.493 14.256l-2.397-9.198.749-.089 2.61 5.399.015-.002-1.437-5.539.775-.092 2.372 9.161-.722.097-2.61-5.352-.015.002 1.433 5.51-.773.103zM1267.87 13.803l-2.365-9.151 2.293-.273.318 1.236-1.52.184.717 2.78 1.321-.166.316 1.23-1.32.169 1.004 3.89-.764.101zM1269.917 13.529l-1.152-9.266.636-.076 3.505 8.941-.754.101-.72-1.916-1.033.135.277 1.979-.759.102zm1.061-3.422-1.217-3.251-.015.002.473 3.347.759-.098zM1273.275 13.078l-2.314-9.077.758-.09 1.978 7.774 1.484-.196.327 1.29-2.233.299zM1275.991 12.714l-2.289-9.04.752-.09 1.957 7.742 1.471-.194.323 1.285-2.214.297zM1278.64 12.359l-.323-1.284.739-.098.322 1.282-.738.1zM1281.724 9.318l.137.551c.069.276.104.541.106.795.002.255-.026.484-.084.69a1.29 1.29 0 0 1-.255.506.643.643 0 0 1-.414.23 1.074 1.074 0 0 1-.449-.043 1.182 1.182 0 0 1-.477-.299 2.597 2.597 0 0 1-.447-.609 4.184 4.184 0 0 1-.366-.997l-1.24-4.947a3.79 3.79 0 0 1-.119-.834c-.006-.26.022-.49.082-.689.06-.198.151-.36.272-.483a.738.738 0 0 1 .45-.217c.348-.041.68.123.996.494.154.181.295.401.421.658.126.258.228.542.305.853l.126.504-.736.091-.107-.429a1.821 1.821 0 0 0-.287-.642c-.128-.175-.262-.255-.402-.238-.184.022-.281.136-.292.342-.01.205.022.46.098.763l1.148 4.588c.065.26.152.473.261.641.109.167.247.239.415.217a.306.306 0 0 0 .144-.064.408.408 0 0 0 .119-.164.878.878 0 0 0 .039-.29 1.953 1.953 0 0 0-.067-.445l-.11-.439.733-.094zM1281.21 4.961a3.89 3.89 0 0 1-.13-.971c.003-.286.042-.529.116-.728.072-.191.169-.34.292-.451a.736.736 0 0 1 .408-.192.9.9 0 0 1 .476.086c.168.075.334.193.498.355.16.171.31.39.45.658s.254.582.343.942l1.163 4.706c.093.374.136.699.131.975a2.106 2.106 0 0 1-.114.697 1.154 1.154 0 0 1-.293.464.744.744 0 0 1-.404.196.887.887 0 0 1-.472-.078 1.514 1.514 0 0 1-.491-.36 2.556 2.556 0 0 1-.451-.625 4.115 4.115 0 0 1-.347-.95l-1.175-4.724zm1.905 4.629c.077.309.182.529.315.663.134.133.267.19.4.173.133-.018.231-.106.292-.264.061-.159.054-.392-.023-.7l-1.167-4.711c-.077-.31-.182-.532-.316-.667s-.269-.194-.403-.178c-.134.016-.232.104-.293.263-.062.159-.054.394.023.704l1.172 4.717zM1285.981 11.375l-2.197-8.903.699-.083 2.091 4.603.014-.002-.236-4.824.7-.084 2.167 8.858-.715.096-1.319-5.382-.014.002.222 3.901-.359.047-1.647-3.725-.014.002 1.329 5.397-.721.097z"/></g><linearGradient id="SVGID_4_" gradientUnits="userSpaceOnUse" x1="609.398" y1="82.623" x2="691.729" y2="82.623" gradientTransform="matrix(.5002 -.7997 .8409 .5401 228.17 611.613)"><stop offset="0" style="stop-color:#bebed2"/><stop offset="1" style="stop-color:#787883"/></linearGradient><path d="M676.325 210.932c-10.207 0-23.377-6.373-28.173-20.366-3.563-10.394-2.445-15.157-1.459-19.361 1.047-4.461 2.035-8.674-2.76-19.153-5.757-12.584-34.372-45.196-55.266-69.009-17.671-20.139-24.333-27.89-24.167-29.382.041-.365.325-.61.708-.61 2.978 0 28.464 22.833 33.543 27.41 11.265 10.152 30.417 27.95 30.746 30.266.37 2.597-.688 3.578-1.621 4.442-.496.459-.963.893-1.216 1.568-.387 1.437 7.521 11.9 14.497 21.132 3.101 4.104 6.307 8.347 9.392 12.55 6.098 8.311 11.59 10.358 17.404 12.525 5.224 1.947 10.625 3.96 16.997 10.427 9.916 10.063 9.772 19.161 8.805 23.688-1.258 5.88-5.192 10.631-10.523 12.707-1.96.762-4.348 1.166-6.907 1.166zm-11.473-41.167c-2.101 0-4.064.466-5.838 1.384-3.537 1.831-5.674 4.605-6.351 8.244-1.103 5.924 1.959 12.644 5.27 16.379 5.089 5.74 11.492 9.168 17.129 9.168h.001c2.172 0 4.264-.49 6.216-1.458 3.293-1.632 5.389-4.024 6.227-7.112 1.117-4.11-.147-9.372-3.468-14.438-4.772-7.278-12.482-12.167-19.186-12.167z" style="fill:url(#SVGID_4_)"/><path class="st2" d="M565.209 53.55c4.006-.004 63.284 53.669 63.793 57.246.525 3.69-2.007 3.621-2.81 5.764-.804 2.143 12.632 18.724 23.953 34.154 11.572 15.772 20.924 9.281 34.448 23.006 14.958 15.18 9.309 31.353-1.543 35.579-1.908.743-4.214 1.132-6.725 1.132-9.849 0-22.883-5.976-27.7-20.028-7.297-21.286 5.155-18.034-4.236-38.561-9.497-20.757-79.793-94.508-79.39-98.128.012-.11.084-.164.21-.164m109.852 151.89c2.156 0 4.323-.461 6.439-1.51 8.941-4.431 8.395-13.974 2.955-22.272-4.74-7.23-12.484-12.392-19.603-12.392-2.109 0-4.162.453-6.068 1.439-10.924 5.656-6.806 19.103-1.225 25.399 4.462 5.034 10.922 9.336 17.502 9.336M565.21 52.55h-.001c-.64.001-1.135.435-1.204 1.055-.186 1.67 4.751 7.502 24.287 29.767 20.874 23.789 49.461 56.37 55.188 68.887 4.723 10.324 3.798 14.266 2.727 18.832-1.002 4.269-2.137 9.108 1.473 19.637 4.876 14.225 18.268 20.704 28.646 20.704 2.621 0 5.072-.415 7.088-1.2 5.489-2.137 9.537-7.023 10.83-13.068.989-4.626 1.144-13.914-8.937-24.145-6.45-6.545-11.904-8.578-17.178-10.544-5.742-2.14-11.166-4.161-17.175-12.352-3.086-4.205-6.292-8.448-9.393-12.552-6.676-8.834-14.234-18.836-14.399-20.74.219-.52.608-.881 1.056-1.296.972-.902 2.183-2.024 1.776-4.88-.08-.564-.23-1.615-9.911-11.03-5.584-5.431-13.039-12.369-20.992-19.537-8.095-7.296-15.784-13.996-21.652-18.867-10.449-8.671-11.607-8.671-12.229-8.671zm109.851 151.89c-5.496 0-11.759-3.364-16.754-9-3.233-3.647-6.225-10.196-5.153-15.955.647-3.48 2.696-6.135 6.09-7.892 1.701-.881 3.588-1.327 5.608-1.327 6.542 0 14.084 4.799 18.767 11.941 3.242 4.945 4.483 10.059 3.404 14.032-.799 2.943-2.807 5.23-5.967 6.796a13.396 13.396 0 0 1-5.995 1.405z"/><path class="st3" d="M618.452 111.585a3.779 3.779 0 0 1-3.607-2.631 3.794 3.794 0 0 1 3.609-4.95 3.779 3.779 0 0 1 3.607 2.631 3.794 3.794 0 0 1-3.609 4.95z"/><path d="M618.454 104.504a3.291 3.291 0 0 1 1.006 6.422 3.29 3.29 0 1 1-1.006-6.422m0-1c-.445 0-.886.069-1.313.206a4.258 4.258 0 0 0-2.503 2.124 4.261 4.261 0 0 0-.268 3.272 4.276 4.276 0 0 0 4.083 2.978 4.295 4.295 0 0 0 4.085-5.602 4.28 4.28 0 0 0-4.084-2.978z" style="fill:#6f6f82"/><path class="st5" d="m616.242 110.199 4.422-4.809"/><linearGradient id="SVGID_5_" gradientUnits="userSpaceOnUse" x1="559.97" y1="65.525" x2="622.424" y2="65.525" gradientTransform="scale(1 -1) rotate(-67.543 484.654 -4.797)"><stop offset="0" style="stop-color:#dcdce6"/><stop offset="1" style="stop-color:#c7c7d1"/></linearGradient><path d="M606.202 103.134c-5.982-6.926-12.122-13.923-17.538-20.096-17.668-20.136-24.328-27.886-24.163-29.378.041-.365.325-.61.708-.61 3.203 0 34.197 27.651 49.224 41.858l.328.311-.276.358c-2.077 2.697-5.061 5.691-7.602 7.628l-.374.285-.307-.356z" style="fill:url(#SVGID_5_)"/><path class="st2" d="M565.209 53.55c2.72-.002 30.894 24.717 48.88 41.722-2.059 2.673-4.975 5.604-7.509 7.536-20.662-23.921-41.803-47.102-41.582-49.092.013-.112.084-.166.211-.166m.001-1c-.641 0-1.136.434-1.205 1.055-.186 1.67 4.752 7.503 24.29 29.771 5.414 6.17 11.55 13.164 17.529 20.085l.615.712.748-.57c2.612-1.991 5.56-4.949 7.695-7.721l.551-.716-.657-.621c-9.12-8.623-20.691-19.071-30.197-27.268C567.5 52.55 565.895 52.55 565.21 52.55z"/></svg>